<svg width="100%" height="30px" viewBox="0 0 129 100" fill="white" xmlns="http://www.w3.org/2000/svg">
<path d="M96.9 17.6004L79.9 34.6004C74 28.7004 65.8 25.0004 56.7 25.0004C38.7 24.9004 24 39.6004 24 57.7004C24 66.8004 27.7 74.9004 33.6 80.9004L16.6 97.9004C6.4 87.6004 0 73.4004 0 57.7004C0 26.3004 25.4 0.900391 56.8 0.900391C72.5 0.900391 86.7 7.30039 96.9 17.6004ZM111.8 2.70039L94.8 19.7004C101 25.9004 104.7 34.5004 104.4 43.9004C103.9 61.1004 89.9 75.0004 72.7 75.6004C63.2 75.9004 54.6 72.2004 48.4 66.0004L31.4 83.0004C41.8 93.4004 56.2 99.8004 72.1 99.6004C102.9 99.3004 128.1 74.1004 128.4 43.3004C128.5 27.5004 122.2 13.1004 111.8 2.70039Z" fill="white"/>
</svg>
