<?xml version="1.0" encoding="utf-8"?>
<!-- Generator: Adobe Illustrator 26.3.1, SVG Export Plug-In . SVG Version: 6.00 Build 0)  -->
<svg version="1.1" id="Layer_1" xmlns="http://www.w3.org/2000/svg" xmlns:xlink="http://www.w3.org/1999/xlink" x="0px" y="0px"
	 viewBox="0 0 800.6 129.5" style="enable-background:new 0 0 800.6 129.5;" xml:space="preserve">
<path d="M48.7,15.9c6.1-3.6,13.3-5.4,21.3-5.4c9.4,0,17.2,2.5,23.6,7.6c6.3,5.1,10.3,12,11.9,20.9H95c-1.5-5.9-4.5-10.5-9-13.8
	c-4.5-3.3-10-5-16.4-5c-5.8,0-11,1.4-15.4,4.2c-4.4,2.8-7.9,6.8-10.2,11.8c-2.4,5.1-3.6,10.9-3.6,17.4c0,6.5,1.2,12.2,3.6,17.3
	c2.4,5.1,5.8,9.1,10.2,11.9c4.4,2.8,9.6,4.2,15.4,4.2c6.5,0,12-1.6,16.4-4.9c4.4-3.3,7.4-7.9,9-13.9h10.5
	c-1.6,8.8-5.6,15.8-11.8,20.9c-6.3,5.1-14.1,7.6-23.6,7.6c-8.1,0-15.2-1.8-21.3-5.4c-6.1-3.6-10.9-8.6-14.2-15.2
	c-3.3-6.5-5-14-5-22.6c0-8.5,1.7-16,5-22.6C37.8,24.5,42.6,19.5,48.7,15.9z"/>
<path d="M140.7,84.7l18.4-50.4h10.5l-28.5,72.3c-1.5,3.7-2.7,6.5-3.9,8.4c-1.1,1.9-2.5,3.2-4.2,4.1c-1.7,0.9-4,1.3-6.8,1.3h-11.9
	v-9.1h8.9c1.9,0,3.4-0.2,4.4-0.6c1-0.4,1.8-1.1,2.4-2c0.6-0.9,1.4-2.5,2.2-4.7l3.2-7.4l-24.2-62.3h10.5L140.7,84.7z"/>
<path d="M234.1,48.2c2.5,4.8,3.8,10.4,3.8,17c0,6.2-1.3,11.7-3.8,16.5c-2.5,4.8-6.1,8.5-10.6,11.2c-4.5,2.7-9.6,4-15.3,4
	c-5,0-9.3-0.9-12.9-2.7c-3.6-1.8-6.3-4.3-8.4-7.5l-1.3,9.5h-8.6V11.2h9.9v33c5.2-7.1,12.2-10.7,21.2-10.7c5.7,0,10.9,1.3,15.3,3.8
	C228.1,39.8,231.6,43.4,234.1,48.2z M227.8,65.2c0-6.7-1.9-12.2-5.6-16.4c-3.8-4.2-8.7-6.4-14.9-6.4c-4,0-7.5,0.9-10.6,2.8
	c-3.1,1.9-5.5,4.6-7.2,8c-1.7,3.4-2.5,7.3-2.5,11.7c0,4.4,0.8,8.4,2.5,11.9c1.7,3.5,4.1,6.2,7.2,8.2c3.1,1.9,6.6,2.9,10.6,2.9
	c6.1,0,11.1-2.1,14.9-6.4C225.9,77.3,227.8,71.9,227.8,65.2z"/>
<path d="M261.2,37.5c4.4-2.6,9.5-3.9,15.3-3.9c5.7,0,10.7,1.2,15,3.5c4.4,2.3,7.8,5.7,10.3,10.2s3.8,9.7,4,15.6
	c0,0.9-0.1,2.3-0.2,4.2h-48v0.8c0.2,6.1,2,10.9,5.6,14.5c3.6,3.6,8.2,5.5,13.9,5.5c4.4,0,8.2-1.1,11.3-3.3c3.1-2.2,5.2-5.3,6.2-9.3
	h10.1c-1.2,6.3-4.2,11.5-9.1,15.5c-4.8,4-10.8,6-17.8,6c-6.1,0-11.5-1.3-16.1-3.9s-8.2-6.3-10.7-11.2c-2.5-4.8-3.8-10.3-3.8-16.5
	c0-6.3,1.2-11.8,3.7-16.6C253.3,43.8,256.8,40.1,261.2,37.5z M289.7,46.6c-3.4-2.9-7.8-4.4-13-4.4c-4.7,0-8.8,1.5-12.4,4.6
	c-3.6,3.1-5.6,7.1-6.1,12h37.3C295.1,53.6,293.1,49.5,289.7,46.6z"/>
<path d="M348.6,43.9h-5c-5.9,0-10.1,2-12.7,5.9c-2.5,4-3.8,8.9-3.8,14.7v31.5h-9.9V34.2h8.6l1.3,9.3c1.8-2.8,4.1-5.1,6.9-6.8
	c2.8-1.7,6.7-2.5,11.8-2.5h2.8V43.9z"/>
</svg>
