<svg width="20" height="20" viewBox="0 0 20 20" fill="none" xmlns="http://www.w3.org/2000/svg">
<path d="M8.33333 5.83332C8.33316 6.99219 8.67817 8.12485 9.32435 9.08683C9.97054 10.0488 10.8886 10.7965 11.9615 11.2346C13.0344 11.6727 14.2134 11.7813 15.3482 11.5466C16.4831 11.3119 17.5223 10.7444 18.3333 9.91666V9.99999C18.3333 14.6025 14.6025 18.3333 10 18.3333C5.3975 18.3333 1.66667 14.6025 1.66667 9.99999C1.66667 5.39749 5.3975 1.66666 10 1.66666H10.0833C9.52836 2.20926 9.08762 2.85746 8.78707 3.57306C8.48652 4.28866 8.33224 5.05717 8.33333 5.83332V5.83332ZM3.33333 9.99999C3.33273 11.4875 3.82961 12.9324 4.74491 14.105C5.66021 15.2775 6.94136 16.1102 8.38451 16.4707C9.82766 16.8311 11.3499 16.6986 12.709 16.0941C14.0682 15.4897 15.1861 14.4481 15.885 13.135C14.6412 13.428 13.3432 13.3984 12.114 13.0489C10.8849 12.6995 9.76542 12.0417 8.86184 11.1381C7.95826 10.2346 7.30054 9.11511 6.95107 7.88597C6.6016 6.65684 6.57197 5.35879 6.865 4.11499C5.79798 4.68344 4.90565 5.53138 4.28355 6.56803C3.66144 7.60468 3.33298 8.791 3.33333 9.99999V9.99999Z" fill="#2D2C29"/>
</svg>
