<?xml version="1.0" encoding="utf-8"?>
<!-- Generator: Adobe Illustrator 26.3.1, SVG Export Plug-In . SVG Version: 6.00 Build 0)  -->
<svg version="1.1" id="Layer_1" xmlns="http://www.w3.org/2000/svg" xmlns:xlink="http://www.w3.org/1999/xlink" x="0px" y="0px"
	 viewBox="0 0 800.6 129.5" style="enable-background:new 0 0 800.6 129.5;" xml:space="preserve">
<path d="M391.4,11.2c7.9,0,14.8,1.5,20.7,4.5c5.9,3,10.4,7.3,13.6,12.7c3.2,5.5,4.7,11.8,4.7,19c0,9.5-2,18-6.1,25.3
	c-4,7.4-9.8,13.1-17.4,17.2c-7.6,4.1-16.4,6.1-26.5,6.1h-27.3l14.9-84.9H391.4z M400.2,79.3c5.2-3.1,9.2-7.3,12-12.7
	s4.2-11.6,4.2-18.6c0-8-2.3-14.1-6.9-18.4c-4.6-4.2-10.9-6.4-19-6.4h-10.7L369.3,84H382C388.9,84,395,82.4,400.2,79.3z"/>
<path d="M457.5,34l-11,62.1h-13.1L444.3,34H457.5z M461.9,16.4c0,2.4-0.8,4.4-2.5,6.1c-1.7,1.6-3.7,2.4-5.9,2.4c-2.2,0-4-0.7-5.4-2
	c-1.4-1.3-2.1-3.1-2.1-5.2c0-2.4,0.8-4.5,2.5-6.1c1.7-1.7,3.7-2.5,6.1-2.5c2.2,0,4,0.7,5.3,2.1C461.2,12.6,461.9,14.3,461.9,16.4z"
	/>
<path d="M526,34l-33.8,62.1h-16l-12-62.1h13.7l8.4,48.1L511.8,34H526z"/>
<path d="M545.8,34l-11,62.1h-13.1L532.6,34H545.8z M550.1,16.4c0,2.4-0.8,4.4-2.5,6.1c-1.7,1.6-3.7,2.4-5.9,2.4c-2.2,0-4-0.7-5.4-2
	c-1.4-1.3-2.1-3.1-2.1-5.2c0-2.4,0.8-4.5,2.5-6.1c1.7-1.7,3.7-2.5,6.1-2.5c2.2,0,4,0.7,5.3,2.1C549.5,12.6,550.1,14.3,550.1,16.4z"
	/>
<path d="M605.7,53.2h-12.6c-0.1-3.1-1.2-5.5-3.4-7.2c-2.2-1.7-5.2-2.6-9-2.6c-4.2,0-7.5,0.7-9.9,2.2c-2.4,1.5-3.6,3.4-3.6,5.7
	c0,2.2,1,3.8,3.1,4.9c2.1,1.1,5,2,8.9,2.6c7.5,1.2,13.3,3.1,17.3,5.6c4,2.5,6.1,6.5,6.1,11.9c0,6.7-2.6,11.8-7.8,15.3
	c-5.2,3.5-11.8,5.3-19.9,5.3c-7.7,0-13.9-1.9-18.7-5.6c-4.8-3.8-7.2-9-7.2-15.7h12.5c0.2,3.6,1.6,6.3,4,8.2c2.4,1.9,5.7,2.9,9.7,2.9
	c4.5,0,8-0.8,10.5-2.3s3.8-3.7,3.8-6.5c0-2.2-1.1-3.9-3.2-5c-2.1-1.2-5.3-2.1-9.5-2.7c-7.4-1.3-13-3.2-16.9-5.6
	c-3.9-2.4-5.8-6.3-5.8-11.8c0-6.1,2.4-10.9,7.3-14.4c4.9-3.4,11.3-5.2,19.1-5.2c7.4,0,13.4,1.7,18,5.2
	C603.4,41.7,605.7,46.7,605.7,53.2z"/>
<path d="M634.2,34l-11,62.1H610L621,34H634.2z M638.5,16.4c0,2.4-0.8,4.4-2.5,6.1c-1.7,1.6-3.7,2.4-5.9,2.4c-2.2,0-4-0.7-5.4-2
	c-1.4-1.3-2.1-3.1-2.1-5.2c0-2.4,0.8-4.5,2.5-6.1c1.7-1.7,3.7-2.5,6.1-2.5c2.2,0,4,0.7,5.3,2.1C637.8,12.6,638.5,14.3,638.5,16.4z"
	/>
<path d="M642.7,83.6c-2.3-4.1-3.5-8.8-3.5-13.9c0-7.1,1.5-13.4,4.4-18.9c3-5.5,7.1-9.8,12.5-12.9c5.4-3.1,11.5-4.6,18.5-4.6
	c5.5,0,10.3,1.2,14.5,3.5c4.2,2.3,7.5,5.6,9.8,9.8s3.5,8.8,3.5,14c0,7.1-1.5,13.4-4.4,18.9c-3,5.5-7.1,9.7-12.5,12.8
	c-5.4,3.1-11.6,4.6-18.6,4.6c-5.4,0-10.2-1.2-14.4-3.5C648.3,90.9,645,87.7,642.7,83.6z M686.5,73.2c1.8-3.8,2.7-7.8,2.7-12.2
	c0-4.9-1.5-8.9-4.4-12c-2.9-3.1-6.6-4.6-11.2-4.6c-4.2,0-7.9,1.1-11.2,3.4c-3.2,2.3-5.7,5.3-7.5,9c-1.8,3.8-2.7,7.9-2.7,12.3
	c0,4.8,1.4,8.8,4.3,11.9c2.9,3.1,6.6,4.6,11.1,4.6c4.3,0,8-1.1,11.3-3.4C682.3,80,684.8,77,686.5,73.2z"/>
<path d="M771,54.5c0,2.3-0.2,5-0.7,7.9l-5.9,33.7h-13.2l5.9-33.3c0.5-2.9,0.7-5.2,0.7-6.9c0-3.6-1-6.3-3-8.3s-4.9-3-8.7-3
	c-5.3,0-9.8,1.8-13.3,5.5c-3.5,3.7-5.8,8.7-7,15.1l-5.6,30.9h-13.1L718.1,34h11.4l0.1,7.6c5.4-5.6,12-8.4,19.9-8.4
	c6.3,0,11.5,1.7,15.5,5.2C769,42,771,47.3,771,54.5z"/>
</svg>
