<svg width="100%" height="30px" viewBox="0 0 199 29" fill="none" xmlns="http://www.w3.org/2000/svg">
<path d="M10.2002 22.6362C15.3454 22.6362 18.5348 20.1388 19.8286 15.144L16.4286 14.5121C15.4657 18.0326 13.4799 19.6273 10.2303 19.6273C8.24438 19.6273 6.61958 18.8751 5.38593 17.4007C4.15228 15.9263 3.52041 14.0608 3.52041 11.7741C3.52041 9.4572 4.15228 7.56159 5.38593 6.08723C6.61958 4.61287 8.24438 3.89074 10.2002 3.89074C13.3595 3.89074 15.4356 5.87661 16.3985 9.84836L19.6782 8.94569C18.5047 3.77038 15.2852 0.881836 10.2603 0.881836C7.28153 0.881836 4.84433 1.90486 2.91863 3.95091C0.962847 6.02705 0 8.61471 0 11.7741C0 14.9334 0.962847 17.5511 2.85845 19.5671C4.75406 21.6131 7.22136 22.6362 10.2002 22.6362Z" fill="white"/>
<path d="M24.8871 28.8947C27.0836 28.8947 28.558 27.8115 29.7314 24.7725L36.1705 7.62177H32.7102L28.6783 19.1759L24.5561 7.62177H21.0658L26.5119 22.2149H27.7456L27.2641 23.4787C26.5721 25.3743 26.0305 26.1566 24.9774 26.1566C24.2552 26.1566 23.6535 25.7654 23.172 24.9831L21.1862 27.0593C21.9384 28.2929 23.172 28.8947 24.8871 28.8947Z" fill="white"/>
<path d="M46.4595 22.576C48.4153 22.576 50.0401 21.8238 51.3339 20.3494C52.6277 18.8751 53.2596 17.0697 53.2596 14.9033C53.2596 12.7369 52.6277 10.9316 51.3339 9.4572C50.0401 7.98284 48.4153 7.2607 46.4896 7.2607C44.263 7.2607 42.578 8.13328 41.4647 9.87844V1.30308H38.2151V22.2149H41.3745V19.868C42.4577 21.6733 44.1427 22.576 46.4595 22.576ZM45.7073 19.9282C44.5338 19.9282 43.5108 19.4467 42.6984 18.4839C41.886 17.521 41.4647 16.3175 41.4647 14.9033C41.4647 13.4891 41.886 12.3157 42.6984 11.3528C43.5108 10.39 44.5338 9.90853 45.7073 9.90853C48.2648 9.90853 49.8596 11.8041 49.8596 14.9033C49.8596 18.0025 48.2648 19.9282 45.7073 19.9282Z" fill="white"/>
<path d="M67.1784 17.0396C66.1854 18.9653 64.7712 19.9282 62.9358 19.9282C60.4384 19.9282 58.8738 18.3034 58.6632 15.6555H69.5554C69.5855 15.5051 69.5855 15.2042 69.5855 14.6927C69.5855 12.436 68.9837 10.6307 67.75 9.27666C66.5164 7.92266 64.8314 7.2607 62.6951 7.2607C60.5588 7.2607 58.7835 7.98284 57.3693 9.39702C55.9552 10.8112 55.233 12.6466 55.233 14.9033C55.233 17.1901 55.9552 19.0255 57.3994 20.4397C58.8437 21.8539 60.6791 22.576 62.9057 22.576C66.0651 22.576 68.3518 21.1919 69.7359 18.4538L67.1784 17.0396ZM62.6048 9.81827C64.8013 9.81827 66.035 11.1121 66.2456 13.4289H58.6933C58.9641 11.1723 60.4685 9.81827 62.6048 9.81827Z" fill="white"/>
<path d="M76.1964 22.2149V14.9635C76.1964 12.0449 77.4902 10.0891 79.1752 10.0891C80.4088 10.0891 81.0407 10.8413 81.0407 12.3457C81.0407 12.5564 81.0106 12.9475 80.9203 13.5493L83.8991 13.8502C84.1699 13.0679 84.2903 12.3157 84.2903 11.5935C84.2903 9.03595 82.5752 7.38106 80.2584 7.38106C78.3026 7.38106 76.9185 8.31382 76.1061 10.1492V7.62177H72.9467V22.2149H76.1964Z" fill="white"/>
<path d="M101.877 22.2149C104.855 22.2149 107.383 21.2822 109.489 19.4167C111.565 17.5812 112.618 15.0237 112.618 11.7741C112.618 9.57755 112.107 7.65186 111.084 6.02705C109.008 2.80753 105.698 1.30308 101.877 1.30308H94.0535V22.2149H101.877ZM97.3933 4.31198H101.395C105.397 4.31198 109.098 6.29785 109.098 11.744C109.098 14.3015 108.376 16.167 106.901 17.3706C105.427 18.6043 103.592 19.206 101.395 19.206H97.3933V4.31198Z" fill="white"/>
<path d="M117.648 5.15447C118.761 5.15447 119.664 4.31198 119.664 3.22878C119.664 2.11548 118.761 1.27299 117.648 1.27299C116.475 1.27299 115.632 2.11548 115.632 3.22878C115.632 4.34207 116.475 5.15447 117.648 5.15447ZM119.273 22.2149V7.62177H116.023V22.2149H119.273Z" fill="white"/>
<path d="M130.712 22.2149L136.399 7.62177H132.938L128.906 18.8751L124.784 7.62177H121.294L126.981 22.2149H130.712Z" fill="white"/>
<path d="M140.068 5.15447C141.181 5.15447 142.084 4.31198 142.084 3.22878C142.084 2.11548 141.181 1.27299 140.068 1.27299C138.895 1.27299 138.052 2.11548 138.052 3.22878C138.052 4.34207 138.895 5.15447 140.068 5.15447ZM141.693 22.2149V7.62177H138.443V22.2149H141.693Z" fill="white"/>
<path d="M151.507 22.576C155.208 22.576 157.735 20.891 157.735 18.0326C157.735 15.2343 155.84 14.1812 152.71 13.6697L151.025 13.3688C149.22 13.0378 148.588 12.6165 148.588 11.5033C148.588 10.39 149.611 9.728 151.386 9.728C153.222 9.728 154.335 10.5705 154.726 12.2254L157.645 11.5033C157.194 8.97577 155.057 7.2607 151.447 7.2607C147.685 7.2607 145.338 8.9156 145.338 11.5333C145.338 13.098 145.88 14.1812 146.963 14.8431C148.046 15.5051 148.979 15.806 150.544 16.0768L152.229 16.3476C153.824 16.6786 154.425 17.0697 154.425 18.1228C154.425 19.4167 153.282 20.1087 151.597 20.1087C149.19 20.1087 147.896 19.0556 147.716 16.9794L144.646 17.4308C144.677 19.0857 145.308 20.3494 146.602 21.222C147.896 22.1247 149.521 22.576 151.507 22.576Z" fill="white"/>
<path d="M162.517 5.15447C163.63 5.15447 164.533 4.31198 164.533 3.22878C164.533 2.11548 163.63 1.27299 162.517 1.27299C161.344 1.27299 160.501 2.11548 160.501 3.22878C160.501 4.34207 161.344 5.15447 162.517 5.15447ZM164.142 22.2149V7.62177H160.892V22.2149H164.142Z" fill="white"/>
<path d="M180.245 20.4096C181.689 18.9653 182.411 17.1299 182.411 14.9033C182.411 12.6767 181.689 10.8413 180.245 9.39702C178.8 7.98284 176.995 7.2607 174.798 7.2607C172.602 7.2607 170.797 7.98284 169.352 9.39702C167.878 10.8413 167.156 12.6767 167.156 14.9033C167.156 17.1299 167.878 18.9653 169.352 20.4096C170.797 21.8539 172.602 22.576 174.798 22.576C176.995 22.576 178.8 21.8539 180.245 20.4096ZM171.729 18.5742C170.947 17.6715 170.556 16.4378 170.556 14.9033C170.556 11.8041 172.241 9.90853 174.798 9.90853C177.326 9.90853 179.041 11.8643 179.041 14.9033C179.041 16.4378 178.65 17.6715 177.898 18.5742C177.115 19.4768 176.092 19.9282 174.798 19.9282C173.505 19.9282 172.482 19.4768 171.729 18.5742Z" fill="white"/>
<path d="M188.736 22.2149V13.6697C188.736 11.3528 190.241 9.9988 192.377 9.9988C194.513 9.9988 195.566 11.2024 195.566 13.5794V22.2149H198.816V13.1281C198.816 9.42711 196.8 7.2607 193.219 7.2607C191.203 7.2607 189.669 8.01293 188.646 9.54747V7.62177H185.487V22.2149H188.736Z" fill="white"/>
</svg>
