<svg
  width="20"
  height="20"
  viewBox="0 0 20 20"
  fill="none"
  xmlns="http://www.w3.org/2000/svg"
>
  <path
    d="M10 15C8.67392 15 7.40215 14.4732 6.46446 13.5355C5.52678 12.5979 5 11.3261 5 10C5 8.67393 5.52678 7.40216 6.46446 6.46448C7.40215 5.52679 8.67392 5.00001 10 5.00001C11.3261 5.00001 12.5979 5.52679 13.5355 6.46448C14.4732 7.40216 15 8.67393 15 10C15 11.3261 14.4732 12.5979 13.5355 13.5355C12.5979 14.4732 11.3261 15 10 15ZM9.16666 0.833344H10.8333V3.33334H9.16666V0.833344ZM9.16666 16.6667H10.8333V19.1667H9.16666V16.6667ZM2.92917 4.10751L4.1075 2.92918L5.875 4.69668L4.69667 5.87501L2.92917 4.10751ZM14.125 15.3033L15.3033 14.125L17.0708 15.8925L15.8925 17.0708L14.125 15.3033ZM15.8925 2.92834L17.0708 4.10751L15.3033 5.87501L14.125 4.69668L15.8925 2.92834ZM4.69667 14.125L5.875 15.3033L4.1075 17.0708L2.92917 15.8925L4.69667 14.125ZM19.1667 9.16668V10.8333H16.6667V9.16668H19.1667ZM3.33333 9.16668V10.8333H0.833332V9.16668H3.33333Z"
  />
</svg>
