<?xml version="1.0" encoding="utf-8"?>
<!-- Generator: Adobe Illustrator 26.3.1, SVG Export Plug-In . SVG Version: 6.00 Build 0)  -->
<svg version="1.1" id="Layer_1" xmlns="http://www.w3.org/2000/svg" xmlns:xlink="http://www.w3.org/1999/xlink" x="0px" y="0px"
	 viewBox="0 0 804 118" style="enable-background:new 0 0 804 118;" xml:space="preserve">
<style type="text/css">
	.st0{fill:#1C1E1B;}
</style>
<path class="st0" d="M96.9,28.6l-17,17c-5.9-5.9-14.1-9.6-23.2-9.6C38.7,35.9,24,50.6,24,68.7c0,9.1,3.7,17.2,9.6,23.2l-17,17
	C6.4,98.6,0,84.4,0,68.7c0-31.4,25.4-56.8,56.8-56.8C72.5,11.9,86.7,18.3,96.9,28.6z M111.8,13.7l-17,17c6.2,6.2,9.9,14.8,9.6,24.2
	c-0.5,17.2-14.5,31.1-31.7,31.7c-9.5,0.3-18.1-3.4-24.3-9.6l-17,17c10.4,10.4,24.8,16.8,40.7,16.6c30.8-0.3,56-25.5,56.3-56.3
	C128.5,38.5,122.2,24.1,111.8,13.7z"/>
<path d="M183.4,26c5-2.9,10.8-4.4,17.5-4.4c5.2,0,9.8,1,13.9,2.9c4.1,2,7.5,4.7,10.1,8.4c2.6,3.6,4.3,7.8,5,12.6h-11.2
	c-1.1-4.4-3.3-7.8-6.5-10.3c-3.2-2.5-7.1-3.7-11.8-3.7c-4.2,0-8,1.1-11.2,3.2s-5.6,5.1-7.3,8.8c-1.7,3.8-2.5,8.1-2.5,13
	c0,4.8,0.8,9.1,2.5,12.9c1.7,3.8,4.1,6.7,7.3,8.9s6.9,3.2,11.2,3.2c4.7,0,8.6-1.2,11.8-3.7c3.2-2.5,5.3-5.9,6.4-10.3h11.2
	c-0.7,4.8-2.4,9-4.9,12.6c-2.6,3.6-5.9,6.4-10,8.3c-4.1,2-8.8,2.9-14,2.9c-6.7,0-12.5-1.4-17.5-4.3c-5-2.9-8.8-6.9-11.5-12.2
	s-4.1-11.4-4.1-18.3c0-6.9,1.4-13,4.1-18.2C174.5,33,178.4,28.9,183.4,26z"/>
<path d="M258.7,79.3l13.6-38.6h11.2l-22.7,57.9c-1.2,3-2.2,5.3-3.2,6.9c-1,1.6-2.2,2.8-3.6,3.6c-1.4,0.8-3.4,1.2-5.8,1.2h-11.3V101
	h7.4c2,0,3.4-0.3,4.2-0.9c0.8-0.6,1.6-2,2.4-4.2l2.1-4.8l-19.6-50.5h11.2L258.7,79.3z"/>
<path d="M336.3,52c2,3.8,3,8.4,3,13.7c0,5-1,9.5-3,13.4c-2,3.9-4.8,6.9-8.4,9c-3.6,2.2-7.7,3.2-12.2,3.2c-3.7,0-6.9-0.7-9.7-2.1
	c-2.7-1.4-5-3.3-6.7-5.7l-1.3,7.2h-9.2V22.2h10.6v25.8c4-5.3,9.4-8,16.2-8c4.6,0,8.6,1,12.2,3.1S334.3,48.1,336.3,52z M328.6,65.7
	c0-4.9-1.4-8.9-4.1-12c-2.7-3.1-6.2-4.6-10.6-4.6c-4.4,0-7.9,1.5-10.6,4.6c-2.7,3.1-4,7-4,11.9c0,5,1.3,9,4,12.1
	c2.7,3.1,6.2,4.7,10.6,4.7c4.4,0,7.9-1.5,10.6-4.6C327.2,74.7,328.6,70.6,328.6,65.7z"/>
<path d="M357.7,43.2c3.7-2.1,7.9-3.2,12.7-3.2c4.8,0,9.1,1,12.8,2.9s6.6,4.7,8.7,8.3c2.1,3.6,3.2,7.8,3.3,12.6c0,1.3-0.1,2.6-0.3,4
	h-37.8v0.6c0.3,4.4,1.6,7.8,4.1,10.4c2.5,2.5,5.8,3.8,9.9,3.8c3.3,0,6-0.8,8.2-2.3c2.2-1.5,3.7-3.7,4.4-6.5h10.6
	c-0.9,5.1-3.4,9.3-7.4,12.5c-4,3.3-9,4.9-15,4.9c-5.2,0-9.8-1.1-13.6-3.2c-3.9-2.1-6.9-5.1-9-9s-3.2-8.3-3.2-13.4
	c0-5.2,1-9.7,3.1-13.5C351.1,48.3,354,45.3,357.7,43.2z M380,51.6c-2.4-2.1-5.5-3.1-9.2-3.1c-3.5,0-6.4,1.1-9,3.2s-4,4.9-4.4,8.5
	h26.9C383.9,56.5,382.4,53.7,380,51.6z"/>
<path d="M431.3,50.5h-4.7c-4.4,0-7.5,1.4-9.5,4.3c-2,2.8-2.9,6.4-2.9,10.8v25.1h-10.6V40.6h9.4l1.2,7.5c1.4-2.3,3.3-4.2,5.6-5.5
	s5.3-2,9.2-2h2.3V50.5z"/>
<path d="M486,22.2c7,0,13.1,1.4,18.3,4.3c5.2,2.9,9.2,6.9,12,12c2.8,5.2,4.2,11.1,4.2,17.9c0,6.7-1.4,12.7-4.2,17.9
	c-2.8,5.2-6.8,9.2-12,12.1c-5.2,2.9-11.3,4.3-18.3,4.3h-21.8V22.2H486z M503,74.3c4-4.4,6-10.4,6-17.9c0-7.5-2-13.5-6-17.9
	c-4-4.4-9.7-6.6-17-6.6h-10.6v48.9H486C493.4,80.9,499,78.7,503,74.3z"/>
<path d="M541.1,26.9c0,1.8-0.6,3.3-1.9,4.5c-1.2,1.2-2.8,1.8-4.6,1.8c-1.8,0-3.4-0.6-4.6-1.8s-1.9-2.7-1.9-4.5s0.6-3.3,1.9-4.5
	s2.8-1.8,4.6-1.8c1.8,0,3.4,0.6,4.6,1.8C540.4,23.6,541.1,25.1,541.1,26.9z M539.9,40.6v50.1h-10.6V40.6H539.9z"/>
<path d="M556.6,40.6l13.8,38.7L584,40.6h11.2l-18.5,50.1h-12.9l-18.5-50.1H556.6z"/>
<path d="M612.3,26.9c0,1.8-0.6,3.3-1.9,4.5c-1.2,1.2-2.8,1.8-4.6,1.8c-1.8,0-3.4-0.6-4.6-1.8s-1.9-2.7-1.9-4.5s0.6-3.3,1.9-4.5
	s2.8-1.8,4.6-1.8c1.8,0,3.4,0.6,4.6,1.8C611.7,23.6,612.3,25.1,612.3,26.9z M611.1,40.6v50.1h-10.6V40.6H611.1z"/>
<path d="M633.5,80.6c2.2,1.7,5.2,2.5,8.8,2.5c3.2,0,5.8-0.6,7.8-1.8c2-1.2,3-2.8,3-4.8c0-1.7-0.5-3-1.4-3.8s-2.1-1.5-3.7-1.8
	c-1.5-0.4-3.9-0.7-7.1-1.1c-4.4-0.5-8-1.2-10.8-2.1c-2.8-0.9-5.1-2.3-6.8-4.2c-1.7-1.9-2.6-4.5-2.6-7.8c0-3.1,0.9-5.8,2.6-8.2
	c1.7-2.4,4.1-4.2,7.1-5.5c3-1.3,6.5-2,10.3-2c6.3,0,11.5,1.4,15.4,4.2c3.9,2.8,6.1,6.8,6.4,11.8h-10.3c-0.3-2.3-1.4-4.2-3.4-5.6
	s-4.6-2.2-7.6-2.2s-5.5,0.6-7.4,1.8c-1.9,1.2-2.8,2.8-2.8,4.8c0,1.5,0.5,2.6,1.4,3.4c0.9,0.8,2.1,1.3,3.6,1.6c1.4,0.3,3.7,0.6,6.9,1
	c4.3,0.5,7.9,1.2,10.9,2.1s5.3,2.4,7,4.5c1.8,2.1,2.6,4.8,2.6,8.4c0,3.1-0.9,5.9-2.7,8.3c-1.8,2.4-4.3,4.2-7.5,5.5
	c-3.2,1.3-6.8,1.9-10.8,1.9c-6.7,0-12.1-1.5-16.3-4.5c-4.1-3-6.3-7.2-6.4-12.6h10.2C630.1,76.8,631.3,78.9,633.5,80.6z"/>
<path d="M683.8,26.9c0,1.8-0.6,3.3-1.9,4.5c-1.2,1.2-2.8,1.8-4.6,1.8c-1.8,0-3.4-0.6-4.6-1.8s-1.9-2.7-1.9-4.5s0.6-3.3,1.9-4.5
	s2.8-1.8,4.6-1.8c1.8,0,3.4,0.6,4.6,1.8C683.2,23.6,683.8,25.1,683.8,26.9z M682.6,40.6v50.1H672V40.6H682.6z"/>
<path d="M694.3,79.1c-2.1-3.9-3.2-8.4-3.2-13.5c0-5,1.1-9.5,3.2-13.4c2.1-3.9,5.1-6.9,9-9c3.9-2.2,8.3-3.2,13.4-3.2
	s9.5,1.1,13.4,3.2c3.9,2.2,6.9,5.2,9,9s3.2,8.3,3.2,13.4c0,5.1-1.1,9.6-3.2,13.5c-2.1,3.9-5.1,6.9-9,9c-3.9,2.1-8.3,3.2-13.4,3.2
	s-9.5-1.1-13.4-3.2C699.4,86,696.4,83,694.3,79.1z M731.4,65.7c0-4.9-1.4-8.9-4.1-12c-2.7-3.1-6.3-4.6-10.7-4.6s-8,1.5-10.7,4.6
	s-4,7.1-4,12s1.3,8.9,4,12s6.2,4.6,10.7,4.6s8-1.5,10.7-4.6C730.1,74.6,731.4,70.6,731.4,65.7z"/>
<path d="M797.2,63.1v27.6h-10.7v-27c0-4.8-1-8.4-3-10.9s-5-3.7-8.9-3.7c-4.2,0-7.5,1.5-9.8,4.4c-2.4,2.9-3.6,6.9-3.6,12v25.2h-10.6
	V40.6h9.2l1.2,6.6c3.8-4.8,9.1-7.1,16-7.1c5.9,0,10.8,1.8,14.5,5.5C795.4,49.2,797.2,55,797.2,63.1z"/>
</svg>
